<svg width="85" height="81" viewBox="20.8636 22.2727 43.7728 37.3636" fill="none" xmlns="http://www.w3.org/2000/svg">
<path d="M45.5909 22.2727L20.8636 31.5454V50.8636L39.4091 60.1363L64.1364 50.8636V31.5454L45.5909 22.2727Z" fill="#93B1F2"/>
<path d="M64.1363 50.8636L39.4091 60.1364V40.8182L64.1363 31.5454V50.8636Z" fill="#2563EB"/>
<path d="M20.8636 50.8636L39.4091 60.1364V40.8182L20.8636 31.5454V50.8636Z" fill="#2563EB"/>
<path d="M45.591 33.0909V36.1818C45.591 37.0318 43.5123 37.7273 40.9546 37.7273C38.3969 37.7273 36.3182 37.0318 36.3182 36.1818V33.0909C36.3182 33.9409 38.3969 34.6364 40.9546 34.6364C43.5123 34.6364 45.591 33.9409 45.591 33.0909Z" fill="#2563EB"/>
<path d="M40.9546 31.5454C38.3969 31.5454 36.3182 32.2409 36.3182 33.0909C36.3182 33.9409 38.3969 34.6363 40.9546 34.6363C43.5123 34.6363 45.591 33.9409 45.591 33.0909C45.591 32.2409 43.5123 31.5454 40.9546 31.5454Z" fill="#93B1F2"/>
<path d="M36.3181 28.4545V31.5454C36.3181 32.3954 34.2395 33.0909 31.6818 33.0909C29.124 33.0909 27.0454 32.3954 27.0454 31.5454V28.4545C27.0454 29.3045 29.124 30 31.6818 30C34.2395 30 36.3181 29.3045 36.3181 28.4545Z" fill="#2563EB"/>
<path d="M31.6818 26.9091C29.124 26.9091 27.0454 27.6046 27.0454 28.4546C27.0454 29.3046 29.124 30 31.6818 30C34.2395 30 36.3181 29.3046 36.3181 28.4546C36.3181 27.6046 34.2395 26.9091 31.6818 26.9091Z" fill="#93B1F2"/>
<path d="M48.6818 23.8182V26.9091C48.6818 27.7591 46.6031 28.4545 44.0454 28.4545C41.4877 28.4545 39.4091 27.7591 39.4091 26.9091V23.8182C39.4091 24.6682 41.4877 25.3636 44.0454 25.3636C46.6031 25.3636 48.6818 24.6682 48.6818 23.8182Z" fill="#2563EB"/>
<path d="M44.0454 22.2727C41.4877 22.2727 39.4091 22.9682 39.4091 23.8182C39.4091 24.6682 41.4877 25.3636 44.0454 25.3636C46.6031 25.3636 48.6818 24.6682 48.6818 23.8182C48.6818 22.9682 46.6031 22.2727 44.0454 22.2727Z" fill="#93B1F2"/>
<path d="M57.9545 28.4545V31.5454C57.9545 32.3954 55.8759 33.0909 53.3181 33.0909C50.7604 33.0909 48.6818 32.3954 48.6818 31.5454V28.4545C48.6818 29.3045 50.7604 30 53.3181 30C55.8759 30 57.9545 29.3045 57.9545 28.4545Z" fill="#2563EB"/>
<path d="M53.3181 26.9091C50.7604 26.9091 48.6818 27.6046 48.6818 28.4546C48.6818 29.3046 50.7604 30 53.3181 30C55.8759 30 57.9545 29.3046 57.9545 28.4546C57.9545 27.6046 55.8759 26.9091 53.3181 26.9091Z" fill="#93B1F2"/>
</svg>
